<svg xmlns="http://www.w3.org/2000/svg" width="800" height="600" style="background-color: #1a1a1a;">
<line x1="346.315044214" y1="246.315044214" x2="409.675985274" y2="309.675985274" stroke="#00ffcc" stroke-width="2" />
<line x1="409.675985274" y1="309.675985274" x2="590.820312619" y2="490.820312619" stroke="#00ffcc" stroke-width="2" />
<line x1="590.820312619" y1="490.820312619" x2="497.875560206" y2="397.875560206" stroke="#00ffcc" stroke-width="2" />
<line x1="497.875560206" y1="397.875560206" x2="346.315044214" y2="246.315044214" stroke="#00ffcc" stroke-width="2" />
<line x1="263.699776701" y1="163.699776701" x2="262.974215711" y2="162.974215711" stroke="#00ffcc" stroke-width="2" />
<line x1="262.974215711" y1="162.974215711" x2="432.793379197" y2="332.793379197" stroke="#00ffcc" stroke-width="2" />
<line x1="432.793379197" y1="332.793379197" x2="397.38835637" y2="297.38835637" stroke="#00ffcc" stroke-width="2" />
<line x1="397.38835637" y1="297.38835637" x2="263.699776701" y2="163.699776701" stroke="#00ffcc" stroke-width="2" />
<line x1="346.315044214" y1="246.315044214" x2="263.699776701" y2="163.699776701" stroke="#00ffcc" stroke-width="2" />
<line x1="409.675985274" y1="309.675985274" x2="262.974215711" y2="162.974215711" stroke="#00ffcc" stroke-width="2" />
<line x1="590.820312619" y1="490.820312619" x2="432.793379197" y2="332.793379197" stroke="#00ffcc" stroke-width="2" />
<line x1="497.875560206" y1="397.875560206" x2="397.38835637" y2="297.38835637" stroke="#00ffcc" stroke-width="2" />
<circle cx="346.315044214" cy="246.315044214" r="4" fill="#ff0055" />
<circle cx="409.675985274" cy="309.675985274" r="4" fill="#ff0055" />
<circle cx="590.820312619" cy="490.820312619" r="4" fill="#ff0055" />
<circle cx="497.875560206" cy="397.875560206" r="4" fill="#ff0055" />
<circle cx="263.699776701" cy="163.699776701" r="4" fill="#ff0055" />
<circle cx="262.974215711" cy="162.974215711" r="4" fill="#ff0055" />
<circle cx="432.793379197" cy="332.793379197" r="4" fill="#ff0055" />
<circle cx="397.38835637" cy="297.38835637" r="4" fill="#ff0055" />
</svg>